<svg width="64" height="64" viewBox="0 0 800 800" fill="none" xmlns="http://www.w3.org/2000/svg">
  <path class="svg-path path-classroom" fill="#272727" d="M733.979 41.6748C747.487 42.017 758.334 53.0756 758.334 66.667C758.334 80.2583 747.487 91.317 733.979 91.6592L733.334 91.667H724.666V470C724.666 505.845 715.187 537.336 692.761 559.762C670.335 582.188 638.845 591.667 603 591.667H425V651.216L544.514 710.973C556.863 717.147 561.869 732.164 555.694 744.514C549.52 756.863 534.503 761.869 522.153 755.694L400 694.617L277.848 755.694L277.267 755.976C265.031 761.711 250.385 756.67 244.307 744.514C238.132 732.164 243.137 717.147 255.486 710.973L375 651.216V591.667H196.666C160.81 591.667 129.342 582.183 106.886 559.784C84.4409 537.397 74.8546 505.952 74.666 470.132V91.667H66.667C52.86 91.667 41.6672 80.474 41.667 66.667C41.667 52.8599 52.8599 41.667 66.667 41.667H733.334L733.979 41.6748ZM124.666 469.869L124.678 471.15C125.038 497.907 132.216 514.429 142.196 524.384C152.323 534.485 169.189 541.667 196.666 541.667H603C630.487 541.667 647.332 534.48 657.405 524.406C667.479 514.333 674.666 497.488 674.666 470V91.667H124.666V469.869Z"/>
  <path class="svg-path path-classroom" fill="#272727" d="M533.978 247.477C544.576 238.628 560.341 240.046 569.19 250.645C578.039 261.243 576.621 277.008 566.022 285.857L461.022 373.524C460.889 373.636 460.753 373.747 460.617 373.855C451.358 381.262 439.451 384.837 427.39 382.827C415.231 380.801 404.981 373.436 398.63 362.975C398.607 362.937 398.585 362.9 398.562 362.862L363.518 304.455L266.022 385.857C255.424 394.706 239.659 393.288 230.81 382.689C221.961 372.091 223.379 356.326 233.978 347.477L338.978 259.81C348.38 251.938 360.559 248.261 372.832 250.42C384.672 252.503 394.512 259.641 400.774 269.406L401.37 270.359L436.481 328.878L533.978 247.477Z"/>
</svg>
