<svg width="64" height="64" viewBox="0 0 800 800" fill="none" xmlns="http://www.w3.org/2000/svg">
  <path class="svg-path path-investments" fill="#272727" d="M400 41.667C413.807 41.6672 425 52.86 425 66.667C425 80.4739 413.807 91.6668 400 91.667C229.807 91.6672 91.6672 229.807 91.667 400C91.6672 570.193 229.807 708.334 400 708.334C570.193 708.334 708.334 570.193 708.334 400C708.334 386.193 719.527 375 733.334 375C747.141 375 758.334 386.193 758.334 400C758.334 597.807 597.807 758.334 400 758.334C202.193 758.334 41.6672 597.807 41.667 400C41.6672 202.193 202.193 41.6672 400 41.667Z"/>
  <path class="svg-path path-investments" fill="#272727" d="M400 225C413.807 225 425 236.193 425 250V258H428C473.509 258 508.667 296.252 508.667 341.334C508.667 355.141 497.474 366.334 483.667 366.334C469.86 366.334 458.667 355.141 458.667 341.334C458.667 321.749 443.824 308 428 308H425V382.018L458.568 393.729L458.717 393.781C470.463 397.962 483.887 404.524 493.913 417.363C504.161 430.487 508.334 446.856 508.334 465.667C508.334 506.589 476.661 541.667 435 541.667H425V550C425 563.807 413.807 575 400 575C386.193 575 375 563.807 375 550V541.667H372.334C326.825 541.667 291.667 503.415 291.667 458.334C291.667 444.527 302.86 433.334 316.667 433.334C330.474 433.334 341.667 444.527 341.667 458.334C341.667 477.919 356.51 491.667 372.334 491.667H375V417.531L341.766 405.938C341.716 405.921 341.666 405.903 341.617 405.886C330.028 401.761 316.543 395.316 306.464 382.482C296.145 369.343 292.001 352.914 292.001 334C292.001 293.52 323.569 258 365.334 258H375V250C375 236.193 386.193 225 400 225ZM425 491.667H435C446.672 491.667 458.334 481.411 458.334 465.667C458.334 454.146 455.84 449.847 454.505 448.137C452.948 446.143 449.87 443.706 441.95 440.887L425 434.973V491.667ZM365.334 308C353.766 308 342.001 318.48 342.001 334C342.001 345.752 344.522 349.991 345.787 351.602C347.289 353.514 350.298 355.898 358.348 358.768L375 364.576V308H365.334Z"/>
  <path class="svg-path path-investments" fill="#272727" d="M715.656 48.9893C725.419 39.2263 741.249 39.2262 751.012 48.9893C760.774 58.7523 760.774 74.5818 751.012 84.3447L627.023 208.333H700C713.807 208.333 725 219.526 725 233.333C725 247.14 713.807 258.333 700 258.333H566.742C566.511 258.334 566.279 258.331 566.048 258.325C565.941 258.323 565.834 258.317 565.728 258.313C565.632 258.31 565.536 258.307 565.44 258.303C565.348 258.298 565.256 258.292 565.164 258.286C565.037 258.279 564.911 258.271 564.784 258.262C564.675 258.254 564.566 258.244 564.457 258.234C564.384 258.228 564.312 258.222 564.239 258.215C564.104 258.202 563.969 258.187 563.835 258.172C563.755 258.163 563.674 258.154 563.594 258.145C563.458 258.128 563.323 258.109 563.188 258.09C563.136 258.083 563.085 258.076 563.033 258.068C562.878 258.046 562.723 258.022 562.568 257.996C562.522 257.988 562.475 257.981 562.429 257.973C562.263 257.944 562.097 257.914 561.933 257.883C561.91 257.879 561.888 257.874 561.866 257.87C561.485 257.796 561.106 257.713 560.731 257.622C560.72 257.619 560.708 257.616 560.696 257.613C560.527 257.572 560.359 257.529 560.191 257.484C560.149 257.473 560.107 257.462 560.064 257.45C559.902 257.406 559.74 257.36 559.579 257.312C559.556 257.306 559.533 257.298 559.51 257.291C559.349 257.243 559.189 257.195 559.03 257.144C558.985 257.129 558.94 257.114 558.896 257.1C558.745 257.051 558.596 257 558.447 256.948C558.405 256.934 558.363 256.919 558.321 256.904C558.191 256.858 558.061 256.811 557.932 256.763C557.83 256.725 557.728 256.686 557.627 256.646C557.559 256.62 557.491 256.593 557.423 256.566C557.294 256.515 557.165 256.463 557.037 256.409C556.975 256.383 556.913 256.357 556.852 256.331C556.736 256.282 556.621 256.232 556.506 256.181C556.435 256.149 556.364 256.118 556.294 256.086C556.164 256.027 556.035 255.966 555.906 255.904C555.862 255.883 555.818 255.862 555.774 255.841C553.323 254.654 551.024 253.046 548.989 251.012C548.436 250.459 547.916 249.885 547.426 249.296C547.405 249.27 547.383 249.244 547.362 249.219C546.073 247.655 545.002 245.973 544.15 244.21C544.135 244.178 544.12 244.145 544.104 244.113C544.035 243.968 543.967 243.822 543.9 243.676C543.878 243.628 543.857 243.58 543.835 243.531C543.782 243.412 543.73 243.293 543.679 243.173C543.639 243.08 543.599 242.987 543.561 242.894C543.525 242.807 543.49 242.721 543.455 242.634C543.412 242.526 543.369 242.417 543.327 242.309C543.298 242.232 543.269 242.155 543.24 242.078C543.194 241.955 543.149 241.831 543.104 241.706C543.084 241.648 543.064 241.59 543.044 241.532C542.995 241.391 542.947 241.25 542.9 241.107C542.885 241.061 542.87 241.015 542.855 240.969C542.806 240.814 542.759 240.658 542.712 240.502C542.703 240.472 542.693 240.442 542.685 240.412C542.465 239.669 542.28 238.911 542.13 238.141C542.124 238.113 542.12 238.085 542.114 238.057C542.083 237.895 542.054 237.733 542.026 237.57C542.018 237.523 542.011 237.476 542.003 237.429C541.977 237.273 541.952 237.117 541.93 236.96C541.925 236.928 541.921 236.895 541.916 236.863C541.809 236.106 541.734 235.339 541.696 234.562C541.691 234.46 541.688 234.358 541.685 234.256C541.673 233.95 541.667 233.642 541.667 233.333V100C541.667 86.1929 552.86 75 566.667 75C580.474 75.0002 591.667 86.193 591.667 100V172.979L715.656 48.9893Z"/>
</svg>
