<svg width="64" height="64" viewBox="0 0 800 800" fill="none" xmlns="http://www.w3.org/2000/svg">
  <path class="svg-path path-income" fill="#272727" d="M400 41.667C597.9 41.6672 758.334 202.098 758.334 400C758.334 597.9 597.9 758.334 400 758.334C202.098 758.334 41.6672 597.9 41.667 400C41.6672 202.098 202.098 41.6672 400 41.667ZM400 91.667C229.712 91.6672 91.6672 229.712 91.667 400C91.6672 570.286 229.712 708.334 400 708.334C570.286 708.334 708.334 570.286 708.334 400C708.334 229.712 570.286 91.6672 400 91.667Z"/>
  <path class="svg-path path-income" fill="#272727" d="M400 175C413.807 175 425 186.193 425 200V219.661H437.396C493.336 219.661 536.396 266.681 536.396 322.328C536.396 336.135 525.203 347.328 511.396 347.328C497.59 347.328 486.397 336.135 486.396 322.328C486.396 291.975 463.457 269.661 437.396 269.661H425V382.132L475.601 399.711L475.748 399.763C490.719 405.069 506.956 413.022 518.947 428.319C531.171 443.913 536.396 463.749 536.396 487.66C536.396 537.723 497.257 580.326 446.729 580.326H425V600L424.992 600.646C424.65 614.154 413.591 625 400 625C386.409 625 375.35 614.154 375.008 600.646L375 600V580.326H363.063C307.124 580.326 264.063 533.307 264.062 477.66C264.063 463.853 275.256 452.66 289.062 452.66C302.87 452.66 314.062 463.853 314.062 477.66C314.063 508.012 337.002 530.326 363.063 530.326H375V417.693L324.858 400.275C324.809 400.258 324.76 400.241 324.711 400.224C309.74 394.917 293.503 386.964 281.512 371.667C269.288 356.074 264.063 336.238 264.062 312.328C264.063 262.265 303.202 219.661 353.729 219.661H375V200C375 186.193 386.193 175 400 175ZM425 530.326H446.729C467.535 530.326 486.396 512.264 486.396 487.66C486.396 470.905 482.79 463.24 479.597 459.167C476.176 454.804 470.421 450.928 459.089 446.906L425 435.063V530.326ZM353.729 269.661C332.923 269.661 314.063 287.725 314.062 312.328C314.063 329.082 317.669 336.746 320.862 340.819C324.285 345.186 330.047 349.065 341.397 353.09L375 364.763V269.661H353.729Z"/>
</svg>
