<svg width="64" height="64" viewBox="0 0 800 800" fill="none" xmlns="http://www.w3.org/2000/svg">
  <path class="svg-path path-expenses" fill="#272727" d="M400 41.667C413.807 41.6672 425 52.86 425 66.667C425 80.4739 413.807 91.6668 400 91.667C229.807 91.6672 91.6672 229.807 91.667 400C91.6672 570.193 229.807 708.334 400 708.334C570.193 708.334 708.334 570.193 708.334 400C708.334 386.193 719.527 375 733.334 375C747.141 375 758.334 386.193 758.334 400C758.334 597.807 597.807 758.334 400 758.334C202.193 758.334 41.6672 597.807 41.667 400C41.6672 202.193 202.193 41.6672 400 41.667Z"/>
  <path class="svg-path path-expenses" fill="#272727" d="M400 225C413.807 225 425 236.193 425 250V258H428C473.509 258 508.667 296.252 508.667 341.334C508.667 355.141 497.474 366.334 483.667 366.334C469.86 366.334 458.667 355.141 458.667 341.334C458.667 321.749 443.824 308 428 308H425V382.018L458.568 393.729L458.717 393.781C470.463 397.962 483.887 404.524 493.913 417.363C504.161 430.487 508.334 446.856 508.334 465.667C508.334 506.589 476.661 541.667 435 541.667H425V550C425 563.807 413.807 575 400 575C386.193 575 375 563.807 375 550V541.667H372.334C326.825 541.667 291.667 503.415 291.667 458.334C291.667 444.527 302.86 433.334 316.667 433.334C330.474 433.334 341.667 444.527 341.667 458.334C341.667 477.919 356.51 491.667 372.334 491.667H375V417.531L341.766 405.938C341.716 405.921 341.666 405.903 341.617 405.886C330.028 401.761 316.543 395.316 306.464 382.482C296.145 369.343 292.001 352.914 292.001 334C292.001 293.52 323.569 258 365.334 258H375V250C375 236.193 386.193 225 400 225ZM425 491.667H435C446.672 491.667 458.334 481.411 458.334 465.667C458.334 454.146 455.84 449.847 454.505 448.137C452.948 446.143 449.87 443.706 441.95 440.887L425 434.973V491.667ZM365.334 308C353.766 308 342.001 318.48 342.001 334C342.001 345.752 344.522 349.991 345.787 351.602C347.289 353.514 350.298 355.898 358.348 358.768L375 364.576V308H365.334Z"/>
  <path class="svg-path path-expenses" fill="#272727" d="M733.334 41.667C733.54 41.667 733.745 41.6688 733.951 41.6738C734.053 41.6763 734.154 41.6809 734.256 41.6846C734.358 41.6883 734.46 41.6913 734.562 41.6963C734.929 41.7141 735.294 41.7409 735.657 41.7744C735.69 41.7774 735.722 41.7801 735.755 41.7832C736.129 41.8191 736.5 41.8638 736.869 41.916C736.898 41.9202 736.928 41.9244 736.957 41.9287C737.115 41.9516 737.272 41.9771 737.429 42.0029C737.476 42.0107 737.523 42.0183 737.57 42.0264C737.733 42.0541 737.895 42.0834 738.057 42.1143C738.085 42.1196 738.113 42.1244 738.141 42.1299C738.911 42.28 739.669 42.4655 740.412 42.6846C740.442 42.6934 740.472 42.703 740.502 42.7119C740.658 42.7586 740.814 42.8058 740.969 42.8555C741.015 42.8703 741.061 42.8853 741.107 42.9004C741.25 42.9469 741.391 42.995 741.532 43.0439C741.59 43.064 741.648 43.084 741.706 43.1045C741.831 43.1487 741.955 43.1941 742.078 43.2402C742.155 43.2689 742.232 43.2977 742.309 43.3271C742.417 43.369 742.526 43.4117 742.634 43.4551C742.721 43.4898 742.807 43.5248 742.894 43.5605C742.987 43.5993 743.08 43.6389 743.173 43.6787C743.293 43.7299 743.412 43.7818 743.531 43.835C743.58 43.8566 743.628 43.8785 743.676 43.9004C743.822 43.9669 743.968 44.035 744.113 44.1045C744.145 44.1199 744.178 44.1349 744.21 44.1504C744.371 44.2283 744.532 44.3081 744.691 44.3896C744.705 44.3965 744.718 44.4033 744.731 44.4102C744.898 44.4955 745.063 44.5835 745.229 44.6729C745.241 44.6795 745.253 44.6857 745.266 44.6924C745.429 44.7811 745.591 44.8722 745.753 44.9648C745.768 44.9733 745.782 44.9818 745.797 44.9902C746.644 45.4782 747.469 46.0198 748.267 46.6152C748.288 46.6311 748.309 46.6472 748.33 46.6631C748.63 46.8887 748.927 47.1214 749.219 47.3623C749.244 47.3835 749.27 47.4045 749.296 47.4258C749.425 47.5328 749.553 47.641 749.68 47.751C749.706 47.7733 749.731 47.7959 749.757 47.8184C750.185 48.1919 750.604 48.5817 751.012 48.9893C753.046 51.0238 754.654 53.3228 755.841 55.7744C755.862 55.8183 755.883 55.8622 755.904 55.9062C755.966 56.0352 756.027 56.1642 756.086 56.2939C756.117 56.3627 756.148 56.4319 756.179 56.501C756.231 56.6175 756.281 56.7344 756.331 56.8516C756.357 56.9133 756.383 56.9752 756.409 57.0371C756.463 57.1654 756.515 57.2939 756.566 57.4229C756.593 57.4907 756.62 57.5588 756.646 57.627C756.686 57.7284 756.725 57.8298 756.763 57.9316C756.811 58.061 756.858 58.1909 756.904 58.3213C756.919 58.3627 756.934 58.4039 756.948 58.4453C757 58.5947 757.05 58.7449 757.1 58.8955C757.114 58.9404 757.129 58.9853 757.144 59.0303C757.253 59.3719 757.355 59.7166 757.45 60.0645C757.462 60.1067 757.473 60.1491 757.484 60.1914C757.68 60.9245 757.843 61.6707 757.973 62.4287C757.981 62.4752 757.988 62.5218 757.996 62.5684C758.022 62.7229 758.046 62.8778 758.068 63.0332C758.076 63.0846 758.083 63.1361 758.09 63.1875C758.109 63.3227 758.128 63.4579 758.145 63.5938C758.154 63.6741 758.163 63.7546 758.172 63.835C758.187 63.9694 758.202 64.1041 758.215 64.2393C758.222 64.3118 758.228 64.3844 758.234 64.457C758.244 64.5659 758.254 64.6749 758.262 64.7842C758.271 64.9107 758.279 65.0374 758.286 65.1641C758.292 65.2561 758.298 65.3481 758.303 65.4404C758.307 65.5338 758.31 65.6273 758.313 65.7207C758.318 65.8299 758.323 65.9393 758.325 66.0488C758.33 66.2549 758.334 66.4609 758.334 66.667L758.333 200C758.333 213.807 747.14 225 733.333 225C719.526 225 708.333 213.807 708.333 200V127.022L584.345 251.012C574.582 260.774 558.752 260.774 548.989 251.012C539.226 241.249 539.226 225.419 548.989 215.656L672.979 91.667H600C586.193 91.667 575 80.474 575 66.667C575 52.8599 586.193 41.667 600 41.667H733.334Z"/>
</svg>
